<!-- icon666.com - MILLIONS vector ICONS FREE --><svg id="icons" viewBox="0 0 60 60" xmlns="http://www.w3.org/2000/svg"><path d="m37.12 1.03c-.05.76.02 16.15-6.12 24.97 0 .01-1.99-.01-2 0-6.17-8.81-6.07-24.18-6.12-24.97a1.084 1.084 0 0 1 .38.17 11.633 11.633 0 0 0 6.74 1.71 11.633 11.633 0 0 0 6.74-1.71 1.084 1.084 0 0 1 .38-.17z" fill="#166875"></path><path d="m30 54.39-4.05 4.02a2.055 2.055 0 0 1 -2.35.38l-11.82-5.86a2.039 2.039 0 0 1 -1.12-1.81c-.05-14.89-1.04-21.7-1.62-24.43a2.006 2.006 0 0 1 1.08-2.2 10.2 10.2 0 0 0 5.63-9.47c0-5.39-1.36-8.53-2.26-10.02a1 1 0 0 1 .58-1.49l8.29-2.47a1.019 1.019 0 0 1 .52-.01c.05.79.97 14.91 7.14 23.72z" fill="#2489a8"></path><path d="m50.96 26.69c-.58 2.73-1.57 9.54-1.62 24.43a2.039 2.039 0 0 1 -1.12 1.81l-11.82 5.86a2.055 2.055 0 0 1 -2.35-.38l-4.05-4.02-2.11-2.13a2.988 2.988 0 0 1 -.89-2.13v-20.6a3 3 0 0 1 .83-2.11 20.353 20.353 0 0 0 2.19-2.67c.01-.01.02-.01.02-.02 6.14-8.82 7.03-22.94 7.08-23.7a1.019 1.019 0 0 1 .52.01l8.29 2.47a1 1 0 0 1 .58 1.49c-.9 1.49-2.26 4.63-2.26 10.02a10.2 10.2 0 0 0 5.63 9.47 2.006 2.006 0 0 1 1.08 2.2z" fill="#1c778c"></path><g fill="#e1efff"><path d="m31 34a1 1 0 0 1 -1-1v-1a1 1 0 0 1 2 0v1a1 1 0 0 1 -1 1z"></path><path d="m31 39a1 1 0 0 1 -1-1v-1a1 1 0 0 1 2 0v1a1 1 0 0 1 -1 1z"></path><path d="m31 44a1 1 0 0 1 -1-1v-1a1 1 0 0 1 2 0v1a1 1 0 0 1 -1 1z"></path><path d="m31 49a1 1 0 0 1 -1-1v-1a1 1 0 0 1 2 0v1a1 1 0 0 1 -1 1z"></path></g></svg>