<svg id="SvgjsSvg1001" width="288" height="288" xmlns="http://www.w3.org/2000/svg" version="1.1" xmlns:xlink="http://www.w3.org/1999/xlink" xmlns:svgjs="http://svgjs.com/svgjs"><defs id="SvgjsDefs1002"></defs><g id="SvgjsG1008"><svg xmlns="http://www.w3.org/2000/svg" enable-background="new 0 0 68 68" viewBox="0 0 68 68" width="288" height="288"><path fill="#22d1ee" d="M41.44795,2h7.46529c0.87049,0,1.5416,0.77472,1.4024,1.634
			c-0.64787,3.99921-1.31721,14.28895,7.73144,18.91144c0.62703,0.32032,1.00805,0.98086,1.00805,1.68497l0.00001,29.28095
			c0,0.67089-0.35061,1.29301-0.92453,1.64045L40.66933,65.72254c-0.90406,0.5473-2.08052,0.25999-2.63054-0.64241
			c-0.63429-1.04066-5.33172-8.71273-6.806-10.72743V21.64224l2.66352-4.05015L41.44795,2z" class="colorfc3 svgShape"></path><path fill="#3d5af1" d="M26.55205,2h-7.46529c-0.87049,0-1.5416,0.77472-1.4024,1.634
			c0.64787,3.99921,1.31721,14.28895-7.73144,18.91144c-0.62703,0.32032-1.00805,0.98086-1.00805,1.68497L8.94486,53.51137
			c0,0.67089,0.35061,1.29301,0.92453,1.64045l17.46127,10.57073c0.90406,0.5473,2.08051,0.25999,2.63054-0.64241
			c0.63429-1.04066,5.33172-8.71273,6.806-10.72743V21.64224l-2.66352-4.05015L26.55205,2z" class="colorffeb33 svgShape"></path><path fill="#0e153a" d="M41.47574,2.00001c0,6.9032-7.46183,15.4923-7.46183,15.4923s-7.46184-8.5891-7.46184-15.4923
			C31.8691,4.04503,36.81709,3.91534,41.47574,2.00001z" class="color4c4947 svgShape"></path><path fill="#666666" d="M32.34583 28.81421c0 1.21273-.98813 2.18968-2.18969 2.18968-1.2128 0-2.20099-.97696-2.20099-2.18968 0-1.2128.9882-2.18975 2.20099-2.18975C31.3577 26.62445 32.34583 27.60141 32.34583 28.81421zM32.34583 37.95872c0 1.21273-.98813 2.18969-2.18969 2.18969-1.2128 0-2.20099-.97696-2.20099-2.18969 0-1.2128.9882-2.18975 2.20099-2.18975C31.3577 35.76897 32.34583 36.74593 32.34583 37.95872zM32.34583 47.10324c0 1.21273-.98813 2.18969-2.18969 2.18969-1.2128 0-2.20099-.97696-2.20099-2.18969 0-1.2128.9882-2.18975 2.20099-2.18975C31.3577 44.91349 32.34583 45.89045 32.34583 47.10324z" class="color666 svgShape"></path><path fill="#e2f3f5" d="M44.78326 58.91867c-.16895 0-.33398-.08594-.42773-.24121-.14258-.23633-.06738-.54395.16895-.68652l6.28711-3.80566c.23633-.14063.54395-.06738.68652.16895s.06738.54395-.16895.68652l-6.28711 3.80566C44.961 58.89523 44.87213 58.91867 44.78326 58.91867zM53.47662 53.58859c-.16895 0-.33398-.08594-.42773-.24121-.14258-.23633-.06738-.54297.16895-.68652l.59473-.36035c.23535-.14063.54297-.06738.68652.16895.14258.23633.06738.54297-.16895.68652l-.59473.36035C53.65436 53.56515 53.56549 53.58859 53.47662 53.58859zM19.24518 19.05148c-.09863 0-.19727-.02881-.28418-.08838-.22656-.15674-.28418-.46826-.12695-.69531 1.06348-1.54346 1.71484-3.46631 1.93262-5.71484.02734-.2749.27832-.47021.54688-.44922.27441.02686.47559.271.44922.5459-.23535 2.41943-.94434 4.50098-2.10645 6.18555C19.55963 18.9758 19.40338 19.05148 19.24518 19.05148zM21.29987 9.87179c-.26074 0-.48047-.20264-.49805-.46729-.0127-.18799-.02734-.37354-.04395-.55518-.02441-.2749.17871-.51807.45313-.54248.2666-.02979.51758.17725.54297.45361.0166.18945.0332.38184.0459.57861.01855.27539-.19043.51367-.46582.53174C21.32233 9.8713 21.31159 9.87179 21.29987 9.87179zM12.9444 50.12374c-.27637 0-.5-.22363-.5-.5V37.80832c0-.27637.22363-.5.5-.5s.5.22363.5.5v11.81543C13.4444 49.90011 13.22077 50.12374 12.9444 50.12374zM12.9444 35.29562c-.27637 0-.5-.22363-.5-.5v-.80078c0-.27637.22363-.5.5-.5s.5.22363.5.5v.80078C13.4444 35.07199 13.22077 35.29562 12.9444 35.29562z" class="colorfff svgShape"></path></svg></g></svg>